<svg height="280pt" preserveAspectRatio="xMidYMid meet" viewBox="0 0 280 280" width="280pt" xmlns="http://www.w3.org/2000/svg"><g transform="matrix(.1 0 0 -.1 0 280)"><path d="m2037 2714c-1-1-40-5-87-9-81-6-142-14-146-18s-54-303-54-320c0-12 8-17 31-17 29 0 31-2 26-27-3-16-31-180-63-365-45-262-61-339-74-342-8-3-46-8-85-11-38-3-83-8-100-10-16-2-74-7-127-10-82-4-98-3-98 9 0 9 27 170 60 360s60 350 60 356c0 5-13 10-30 10-37 0-36-7-5 172 29 164 29 169 13 163-14-4-106-13-223-21-90-6-125-11-129-15-5-5-56-300-56-322 0-12 8-17 30-17 18 0 30-5 29-12 0-7-30-186-67-398l-67-385-95-12c-52-6-116-13-141-14s-46-7-46-13-3-28-7-49l-7-38 98 6c54 3 117 8 140 11 45 5 43 10 29-57-5-24-11-27-72-32-37-4-68-8-70-10-2-1-15-72-29-157s-28-163-31-174c-6-17-1-18 65-14l72 4-6-26c-3-14-34-196-70-405s-67-388-69-398c-4-16 0-18 34-13 21 3 78 8 127 12 48 4 95 8 103 10 8 1 35 3 60 3 41 1 46 3 48 26 2 22 124 738 138 806l5 26-69-4-70-5 24 134c13 73 24 133 24 134s30 4 68 8c37 3 78 8 92 11s80 8 148 12l123 6-5-24c-3-13-12-64-21-114-8-49-18-101-21-114-5-23-4-23 66-19 67 4 71 3 66-17-3-11-35-193-71-405s-68-393-71-402c-5-15 0-17 38-13 24 3 70 7 103 9 120 9 220 19 224 22 2 2 148 824 151 850 0 0-31-1-69-3l-69-5 28 161c16 88 31 165 34 169 3 5 36 12 74 16l68 7-1 47v47l-35-2c-19-1-80-5-134-9-90-5-98-4-92 11 3 9 6 27 6 40 0 20 6 23 56 30 31 4 67 9 79 11 13 2 51 5 85 7 52 2 62 5 65 22 8 33 135 776 135 786 0 5-13 9-30 9-37 0-37-4-5 174 14 77 25 144 25 149 0 6-126 7-133 1z"/><path d="m434 1442c-16-2-23-12-28-40-9-58-8-62 17-58 12 3 36 5 52 5 29 1 30 3 33 49s2 48-25 47c-15 0-38-1-49-3z"/></g></svg>